<?xml version="1.0" encoding="UTF-8"?>
<svg width="29.3002545px" height="29.1553495px" viewBox="0 0 29.3002545 29.1553495" version="1.1" xmlns="http://www.w3.org/2000/svg" xmlns:xlink="http://www.w3.org/1999/xlink">
    <title>技威logo图标</title>
    <defs>
        <linearGradient x1="73.1715916%" y1="6.56364739%" x2="39.8917822%" y2="41.2773308%" id="linearGradient-1">
            <stop stop-color="#F9B800" offset="0%"></stop>
            <stop stop-color="#EA5006" offset="100%"></stop>
        </linearGradient>
        <linearGradient x1="36.5216124%" y1="-3.74168482%" x2="52.0823184%" y2="72.1377562%" id="linearGradient-2">
            <stop stop-color="#004A8A" offset="0%"></stop>
            <stop stop-color="#0077BA" offset="48.8161047%"></stop>
            <stop stop-color="#006AAC" offset="100%"></stop>
        </linearGradient>
        <radialGradient cx="131.561296%" cy="-14.5760952%" fx="131.561296%" fy="-14.5760952%" r="180.620016%" gradientTransform="translate(1.315613,-0.145761),scale(1.000000,0.776815),rotate(128.627927),translate(-1.315613,0.145761)" id="radialGradient-3">
            <stop stop-color="#004A8A" offset="0%"></stop>
            <stop stop-color="#0398E3" offset="78.393282%"></stop>
            <stop stop-color="#0395D7" offset="100%"></stop>
        </radialGradient>
    </defs>
    <g id="H40-云服务" stroke="none" stroke-width="1" fill="none" fill-rule="evenodd">
        <g id="技威logo图标" transform="translate(-4.000000, -3.844651)">
            <rect id="矩形" x="0" y="0" width="37" height="36"></rect>
            <g id="资源-2" transform="translate(4.000000, 3.844651)" fill-rule="nonzero">
                <g id="Clipped" transform="translate(16.533715, 13.206359)" fill="url(#linearGradient-1)">
                    <path d="M12.7167091,0 L12.7167091,14.9055979 C12.7167091,15.4544068 12.2705128,15.8993044 11.7201018,15.8993044 L0,15.8993044 C7.63401187,15.2732693 10.8032231,6.08148394 12.7167091,0 Z" id="路径"></path>
                </g>
                <g id="Clipped">
                    <path d="M0.996607294,0 L6.87659033,0 C5.80025445,2.20602849 1.50487701,11.6263663 2.57124682,18.880424 C3.24307619,23.6755234 6.72280035,27.606689 11.4111535,28.8671746 C11.4111535,28.8671746 4.24554707,27.1977476 3.8668363,18.3835707 C3.52798982,10.4339185 10.0657337,1.6594899 11.3712892,0 L14.1019932,0 C12.8163698,1.60980457 4.98303647,11.8648559 5.64079729,19.7449487 C6.38825276,28.3106989 13.4741306,29.1354753 13.4741306,29.1354753 C13.4741306,29.1354753 6.83672604,27.8933422 7.20547074,18.7909904 C7.53435115,10.6227228 18.168151,1.70917522 20.2510602,0 L27.0678541,0 C24.0623896,1.25411091 21.2505263,2.92695035 18.716285,4.96853263 C13.9525021,8.88373634 9.5773961,14.6273601 8.96946565,18.8406757 C8.22201018,24.4352435 11.1520356,27.2673071 13.254877,28.479629 C13.7947759,28.7994419 14.384123,29.0277788 14.9989398,29.1553495 L0.996607294,29.1553495 C0.446196284,29.1553495 0,28.7104519 0,28.1616429 L0,1.01358066 C0,0.464771696 0.446196284,0.0198741305 0.996607294,0.0198741305 L0.996607294,0 Z" id="形状" fill="url(#linearGradient-2)"></path>
                    <path d="M29.2504241,4.0046373 L29.2504241,10.4736668 C23.6073246,11.8713301 18.4784292,14.8383959 14.4607718,19.02948 C14.5205683,19.0891024 18.0784563,15.4521365 21.3672604,18.9698576 C22.8422392,20.559788 21.9153944,26.7307055 17.2911366,28.0722093 C15.3333384,28.601711 13.2461364,27.9365284 11.9592875,26.3729712 C10.5159676,24.3046491 10.0908247,21.695438 10.8032231,19.2779066 C12.5572519,11.5965552 24.1278626,5.36601524 29.3002545,4.0046373 L29.2504241,4.0046373 Z" id="路径" fill="url(#radialGradient-3)"></path>
                </g>
            </g>
        </g>
    </g>
</svg>